# xmcd
#
# Track frame offsets:
#   150
#   9571
#   20460
#   33605
#   43320
#   56783
#   68593
#   81422
#   94484
#   106440
#   116304
#   128725
#   138824
#   148569
#   158308
#   168756
#   178861
#   191672
#   205318
#   215717
#   229722
#   248860
#
# Disc length: 3465 seconds
#
# Revision: 0
# Processed by: cddbd v1.5.2PL0 Copyright (c) Steve Scherf et al.
# Submitted via: uFREEDB 1.6.0
#
DISCID=370d8716
DTITLE=Various Artist - the best of today's country hits
DYEAR=1900
DGENRE=Country
TTITLE0=jim reeves - I won't come in while he's there
TTITLE1=porter wagoner and dolly parton - holding on to noth
TTITLE2=don gibson - good morning, dear
TTITLE3=lynn anderson - promises, promises
TTITLE4=john hartford - gentle on my mind
TTITLE5=chet atkins - the last thing on my mind
TTITLE6=skeeter davis - I don't wanna play house
TTITLE7=hank snow - there goes my everything
TTITLE8=jim ed brown - bottle, bottle
TTITLE9=george hamilton IV - it's my time
TTITLE10=jerry reed - remembering
TTITLE11=charley pride - does my ring hurt your finger
TTITLE12=connie smith - cincinnati, ohio
TTITLE13=bobby bare - find out what's happening
TTITLE14=norma jean - truck driving woman
TTITLE15=jimmy dean - a thing called love
TTITLE16=floyd cramer - by the time I get to phoenix
TTITLE17=dottie west - country girl
TTITLE18=waylon jennings - only daddy that'll walk the line
TTITLE19=hank locklin - the country hall of fame
TTITLE20=liz anderson - ode to billy joe
TTITLE21=leon ashley - laura (what's he got that I ain't go
EXTD=
EXTT0=
EXTT1=
EXTT2=
EXTT3=
EXTT4=
EXTT5=
EXTT6=
EXTT7=
EXTT8=
EXTT9=
EXTT10=
EXTT11=
EXTT12=
EXTT13=
EXTT14=
EXTT15=
EXTT16=
EXTT17=
EXTT18=
EXTT19=
EXTT20=
EXTT21=
PLAYORDER=
